<?xml version="1.0" encoding="utf-8"?>
<!-- Generator: Adobe Illustrator 21.0.2, SVG Export Plug-In . SVG Version: 6.00 Build 0)  -->
<svg version="1.1" id="Layer_1" xmlns="http://www.w3.org/2000/svg" xmlns:xlink="http://www.w3.org/1999/xlink" x="0px" y="0px"
	 viewBox="0 0 428.5 123" style="enable-background:new 0 0 428.5 123;" xml:space="preserve">
<style type="text/css">
	.st0{fill:url(#SVGID_1_);}
	.st1{fill:#F27D2E;}
	.st2{fill:#F26B2C;}
	.st3{opacity:0.25;fill:url(#SVGID_2_);enable-background:new    ;}
	.st4{fill:#00491A;}
	.st5{fill:#3C6D1F;}
	.st6{fill:#F1592A;}
</style>
<radialGradient id="SVGID_1_" cx="-88.641" cy="419.5783" r="1.0002" gradientTransform="matrix(42.5747 0 0 -8.5533 4159.3486 3703.0374)" gradientUnits="userSpaceOnUse">
	<stop  offset="0" style="stop-color:#3F332B"/>
	<stop  offset="0.85" style="stop-color:#3F332B;stop-opacity:0.1"/>
	<stop  offset="1" style="stop-color:#3F332B;stop-opacity:0"/>
</radialGradient>
<path class="st0" d="M385.5,123c23.4,0,42.4-3.9,42.4-8.7c0-4.8-19-8.7-42.4-8.7c-23.4,0-42.4,3.9-42.4,8.7
	C343.1,119.1,362.1,123,385.5,123z"/>
<path class="st1" d="M384.6,114c23.9,0,43.2-17.6,43.2-39.4c0-21.7-19.4-39.4-43.2-39.4c-23.9,0-43.2,17.6-43.2,39.4
	C341.4,96.4,360.7,114,384.6,114z"/>
<path class="st2" d="M424.6,74.7c0,20-18.1,36.3-40.4,36.3c-16.8,0-31.2-9.2-37.3-22.3c6.7,11,19.7,18.4,34.5,18.4
	c21.8,0,39.5-16,39.5-35.8c0-4.8-1.1-9.4-3-13.6c0-1.3-0.2-2.5-0.6-3.8C422,59.8,424.6,66.9,424.6,74.7z"/>
<linearGradient id="SVGID_2_" gradientUnits="userSpaceOnUse" x1="384.5935" y1="44.1418" x2="384.5935" y2="89.7471" gradientTransform="matrix(1 0 0 -1 0 125.0226)">
	<stop  offset="0" style="stop-color:#FFFFFF;stop-opacity:0"/>
	<stop  offset="1" style="stop-color:#FFFFFF"/>
</linearGradient>
<path class="st3" d="M384.6,80.9c18.4,0,33.4-10.2,33.4-22.8c0-12.6-14.9-22.8-33.4-22.8c-18.4,0-33.4,10.2-33.4,22.8
	C351.2,70.7,366.2,80.9,384.6,80.9z"/>
<path class="st4" d="M385.3,43.5c-0.1,0-0.2-0.2-0.2-0.3c0.2-0.9,0.8-4.8,0.8-10.4c0-6.4-2.2-19-14.9-20.5c-2-0.3,0.8-4.5,4.1-4.5
	c0.6,0,3,0.6,6.1,3.1c3.1,2.5,8,8,8,17.3c0,1.4,0.7,5.1,6.4,7c5.7,1.9,18.1-1.4,25.3-9.7c0,0-16.5,11.8-25.8,6.3
	c0,0,2-9.9,12.8-11.7c10.8-1.8,15.4-6.7,15.4-6.7s1,4.3,1,8.1s-2.5,14.2-8.1,18.8c-5.6,4.6-9.1,5.2-11.8,5.2s-9.8-0.9-10.2-8.7
	c0,0-3.1-0.6-5-3.3c0,0-0.8,7.8-1.8,10.4c0,0.1-0.2,0.2-0.3,0.1L385.3,43.5z"/>
<path class="st5" d="M413.6,0c0,0,7.7-0.4,11.7,3.8c4.1,4.2,3.3,9,2.5,11.9c0,0-0.2-5.9-3.6-7.2c0,0,9.6,16.8-5.9,31.2
	C418.3,39.6,437.7,17.3,413.6,0z"/>
<path class="st1" d="M21.1,54.3v34.9H9.5V54.3H0v-9.9h30.7v9.9H21.1z"/>
<path class="st1" d="M48.9,59.2h10.8v30H48.9v-3.3c-2.5,3.4-6.4,4.3-9.3,4.3c-3.2,0-7.2-0.9-10.8-4.8c-2.9-3.1-4.3-6.5-4.3-11
	c0-5.6,2.2-9.6,4.6-12c2.5-2.5,6.5-4.2,10.8-4.2c4.8,0,7.7,2.5,9,3.9V59.2z M37.6,69.3c-1.5,1.4-2.2,3.3-2.2,4.9
	c0,1.7,0.7,3.6,2.1,4.9c1.1,1.1,3,2,4.8,2c1.7,0,3.5-0.7,4.8-2.1c0.9-0.9,2-2.4,2-4.8c0-1.4-0.4-3.3-2.1-4.9c-1-0.9-2.5-1.9-4.8-1.9
	C41,67.3,39.2,67.8,37.6,69.3z"/>
<path class="st1" d="M64.3,59.2h10.8V63c3-3.9,6.9-4.5,9.5-4.5c3.1,0,6.4,0.7,8.9,3.2c2.5,2.5,2.8,5.1,2.8,8.4v19.1H85.6V74.1
	c0-1.7,0.1-4.4-1.4-5.8c-1-1.1-2.3-1.3-3.4-1.3c-1.7,0-3.1,0.6-4,1.4c-1.1,1-1.7,3-1.7,4.8v16.1H64.3L64.3,59.2L64.3,59.2z"/>
<path class="st1" d="M134.7,59.2v28.1c0,4.5-0.4,8.6-4.1,12.4c-3.8,3.9-8.9,4.8-13.2,4.8c-5.6,0-10.2-1.4-14-5.3
	c-1.7-1.8-2.9-3.6-3.3-6.2h12c0.4,1.2,1.5,3.1,5,3.1c1.7,0,3.3-0.3,4.8-1.7c1.8-1.7,2.2-3.8,2.2-5.6v-3c-3.3,3.6-6.6,4-9,4
	c-5.5,0-9.1-2.2-11.1-4.2c-2.7-2.8-4.2-6.9-4.2-10.9c0-4.7,1.8-9,4.4-11.7c2.9-3,6.9-4.6,10.9-4.6c1.9,0,5.8,0.4,8.9,4v-3.1
	L134.7,59.2L134.7,59.2z M112.9,69.3c-1.5,1.6-2.1,3.4-2.1,4.8c0,1.7,0.7,3.6,2.1,4.9c1.4,1.4,3.2,1.9,4.8,1.9c1.7,0,3.6-0.7,4.8-2
	c1.4-1.4,2-3.3,2-4.8c0-1.5-0.9-3.6-2.2-4.9c-1.2-1.2-3-1.9-4.8-1.9C115.8,67.3,114.3,67.9,112.9,69.3z"/>
<path class="st1" d="M164.6,54.3h-13.8v7.5h13.1v9.9h-13.1v7.7h13.8v9.9h-25.5V44.4h25.5V54.3z"/>
<path class="st1" d="M179.5,61.1h16.8V44.4H208v44.8h-11.7V71h-16.8v18.1h-11.6V44.4h11.6V61.1z"/>
<path class="st1" d="M230.2,44.4c3.3,0,7.7,0.6,10.9,4c2.5,2.6,3.8,6.5,3.8,10.1c0,3.8-1.4,7.2-3.6,9.3c-1.7,1.7-4.1,2.7-6.2,3.1
	l14,18.4h-14.5l-11.1-17.2v17.2H212V44.4H230.2z M223.7,64.5h2.2c1.7,0,4.2-0.5,5.6-1.8c0.9-0.9,1.5-2.3,1.5-3.8
	c0-1.4-0.6-2.8-1.5-3.8c-1.1-1.1-3-1.7-5.6-1.7h-2.2V64.5z"/>
<path class="st6" d="M257.2,40.7c3.3,0,6.1,2.7,6.1,6.1c0,3.4-2.7,6.1-6.1,6.1c-3.4,0-6.1-2.7-6.1-6.1
	C251.2,43.3,253.8,40.7,257.2,40.7z"/>
<path class="st1" d="M262.6,59.2v30h-10.8v-30H262.6z"/>
<path class="st1" d="M267.2,59.2H278V63c3-3.9,6.9-4.5,9.5-4.5c3.1,0,6.4,0.7,8.9,3.2c2.5,2.5,2.8,5.1,2.8,8.4v19.1h-10.8V74.1
	c0-1.7,0.1-4.4-1.4-5.8c-1-1.1-2.3-1.3-3.4-1.3c-1.7,0-3.1,0.6-4,1.4c-1.1,1-1.7,3-1.7,4.8v16.1h-10.7V59.2z"/>
<path class="st1" d="M335.7,76.2h-22.4c0,1.6,0.6,3.8,1.9,5c0.7,0.7,2,1.5,4.4,1.5c0.3,0,2.2-0.1,3.5-0.8c0.7-0.4,1.4-1.1,1.9-2
	h10.3c-0.5,1.7-1.4,4-3.6,6.2c-2.2,2.2-5.7,4.2-12.2,4.2c-3.9,0-8.7-0.9-12.4-4.6c-1.9-1.9-4.5-5.6-4.5-11.4c0-5,1.9-9.1,4.5-11.6
	c2.5-2.4,6.4-4.4,12.3-4.4c3.5,0,8,0.7,11.6,4.1c4.2,4,4.8,9.3,4.8,12.6L335.7,76.2L335.7,76.2z M325.8,70c-0.3-1.1-0.9-2.4-1.7-3.2
	c-1.4-1.4-3.3-1.6-4.5-1.6c-1.8,0-3.2,0.5-4.4,1.6c-0.7,0.8-1.4,1.9-1.6,3.2H325.8z"/>
</svg>
